# xmcd
#
# Track frame offsets:
#	150
#	18287
#	35607
#	49904
#	67813
#	83105
#	97687
#	110891
#	125394
#	141929
#	152967
#	170545
#	188200
#	205320
#	224335
#	241938
#	257595
#
# Disc length: 3689 seconds
#
# Revision: 1
# Processed by: cddbd v1.5.2PL0 Copyright (c) Steve Scherf et al.
# Submitted via: audiograbber 1.83.01
#
DISCID=ed0e6711
DTITLE=Various Artist - Country 4 Mum [Disc 1]
DYEAR=2011
DGENRE=Country
TTITLE0=Trisha Yearwood - How Do I Live (1997 Songbook Version)
TTITLE1=McAlister Kemp - Baby Let's Dance
TTITLE2=Emerson Drive - That Kind Of Beautiful
TTITLE3=Carrie Underwood - Mama's Song
TTITLE4=Troy Cassar-Daley - Going Back Home
TTITLE5=Chely Wright - Single White Female (Album Version)
TTITLE6=Brooks and Dunn - That's What She Gets For Loving Me
TTITLE7=Martina McBride - In My Daughter's Eyes
TTITLE8=Shea Fisher - A Little Bit Of Love
TTITLE9=Dianna Corcoran - Thank You For Cheating On Me
TTITLE10=Hot Apple Pie - Easy Does It (Album Version)
TTITLE11=The Wilkinsons - I Want To Fall Asleep In Your Arms
TTITLE12=Travis Collins - Brand New Day
TTITLE13=Phil Vassar - Everywhere I Go (Album Version)
TTITLE14=Felicity Urquhart - The Flood
TTITLE15=Harmony James - Precious Little
TTITLE16=Jamey Johnson - Dreaming My Dreams With You (Album Version)
EXTD=
EXTT0=
EXTT1=
EXTT2=
EXTT3=
EXTT4=
EXTT5=
EXTT6=
EXTT7=
EXTT8=
EXTT9=
EXTT10=
EXTT11=
EXTT12=
EXTT13=
EXTT14=
EXTT15=
EXTT16=
PLAYORDER=
